<svg viewBox="0 0 800 500" xmlns="http://www.w3.org/2000/svg">
  <!-- Background -->
  <rect width="800" height="500" fill="#1a1a2e" />
  
  <!-- Tournament bracket -->
  <g>
    <!-- Bracket lines -->
    <path d="M100 100 L200 100 L200 150 L300 150" stroke="#4a7feb" stroke-width="3" fill="none" />
    <path d="M100 200 L200 200 L200 150" stroke="#4a7feb" stroke-width="3" fill="none" />
    
    <path d="M100 300 L200 300 L200 350 L300 350" stroke="#4a7feb" stroke-width="3" fill="none" />
    <path d="M100 400 L200 400 L200 350" stroke="#4a7feb" stroke-width="3" fill="none" />
    
    <path d="M300 150 L400 150 L400 250 L500 250" stroke="#4a7feb" stroke-width="3" fill="none" />
    <path d="M300 350 L400 350 L400 250" stroke="#4a7feb" stroke-width="3" fill="none" />
    
    <!-- Player nodes -->
    <rect x="50" y="80" width="100" height="40" rx="5" fill="#2d46b9" />
    <rect x="50" y="180" width="100" height="40" rx="5" fill="#2d46b9" />
    <rect x="50" y="280" width="100" height="40" rx="5" fill="#2d46b9" />
    <rect x="50" y="380" width="100" height="40" rx="5" fill="#2d46b9" />
    
    <rect x="250" y="130" width="100" height="40" rx="5" fill="#2d46b9" />
    <rect x="250" y="330" width="100" height="40" rx="5" fill="#2d46b9" />
    
    <rect x="450" y="230" width="100" height="40" rx="5" fill="#e94560" />
  </g>
  
  <!-- Trophy -->
  <g transform="translate(650, 250) scale(0.8)">
    <path d="M0 0 L-50 0 L-50 -20 L50 -20 L50 0 L0 0" fill="#ffd700" />
    <path d="M-30 -20 L-40 -120 L40 -120 L30 -20" fill="#ffd700" />
    <ellipse cx="0" cy="-120" rx="40" ry="15" fill="#ffd700" />
    <rect x="-10" y="0" width="20" height="50" fill="#ffd700" />
    <path d="M-30 50 L30 50 L20 70 L-20 70 Z" fill="#ffd700" />
  </g>
  
  <!-- Gaming elements -->
  <!-- Controller -->
  <g transform="translate(650, 100) scale(0.5)">
    <ellipse cx="-70" cy="0" rx="50" ry="50" fill="#343a40" />
    <ellipse cx="70" cy="0" rx="50" ry="50" fill="#343a40" />
    <rect x="-70" y="-30" width="140" height="60" fill="#343a40" />
    
    <!-- D-pad -->
    <rect x="-85" y="-15" width="30" height="30" fill="#212529" />
    <rect x="-80" y="-20" width="20" height="40" fill="#212529" />
    <rect x="-90" y="-10" width="40" height="20" fill="#212529" />
    
    <!-- Buttons -->
    <circle cx="60" cy="-10" r="8" fill="#e94560" />
    <circle cx="80" cy="-10" r="8" fill="#59b4ff" />
    <circle cx="70" cy="10" r="8" fill="#4ce643" />
    <circle cx="90" cy="10" r="8" fill="#ffde59" />
  </g>
  
  <!-- Text -->
  <text x="400" y="50" font-family="Arial, sans-serif" font-size="36" font-weight="bold" fill="#ffffff" text-anchor="middle">TOURNOI DE JEUX VIDÉO</text>
  <text x="400" y="85" font-family="Arial, sans-serif" font-size="20" fill="#4a7feb" text-anchor="middle">CHAMPIONSHIP 2025</text>
  
  <!-- Decorative elements -->
  <!-- Stars -->
  <g>
    <path d="M150 50 L155 40 L160 50 L170 55 L160 60 L155 70 L150 60 L140 55 Z" fill="#ffde59" />
    <path d="M650 70 L655 60 L660 70 L670 75 L660 80 L655 90 L650 80 L640 75 Z" fill="#ffde59" />
    <path d="M700 380 L705 370 L710 380 L720 385 L710 390 L705 400 L700 390 L690 385 Z" fill="#ffde59" />
    <path d="M120 450 L125 440 L130 450 L140 455 L130 460 L125 470 L120 460 L110 455 Z" fill="#ffde59" />
  </g>
  
  <!-- Winners podium -->
  <g transform="translate(650, 420)">
    <rect x="-60" y="-40" width="40" height="40" fill="#c0c0c0" />
    <rect x="0" y="-60" width="40" height="60" fill="#ffd700" />
    <rect x="60" y="-20" width="40" height="20" fill="#cd7f32" />
    <text x="-40" y="-15" font-family="Arial, sans-serif" font-size="12" fill="#000000" text-anchor="middle">2</text>
    <text x="20" y="-35" font-family="Arial, sans-serif" font-size="12" fill="#000000" text-anchor="middle">1</text>
    <text x="80" y="-5" font-family="Arial, sans-serif" font-size="12" fill="#000000" text-anchor="middle">3</text>
  </g>
</svg>